<svg width="228" height="229" viewBox="0 0 228 229" fill="none" xmlns="http://www.w3.org/2000/svg">
<g clip-path="url(#clip0)">
<path fill-rule="evenodd" clip-rule="evenodd" d="M44.4043 49.3779H48.6231V69.0064H58.6691V72.6435H44.4043V49.3779Z" fill="#C7C7C7"/>
<path fill-rule="evenodd" clip-rule="evenodd" d="M70.2144 49.3779H74.4345V72.6435H70.2144V49.3779Z" fill="#C7C7C7"/>
<path fill-rule="evenodd" clip-rule="evenodd" d="M93.3123 53.015H85.6885V49.3779H105.155V53.015H97.531V72.6435H93.3123V53.015Z" fill="#C7C7C7"/>
<path fill-rule="evenodd" clip-rule="evenodd" d="M122 53.015H114.379V49.3779H133.845V53.015H126.221V72.6435H122V53.015Z" fill="#C7C7C7"/>
<path fill-rule="evenodd" clip-rule="evenodd" d="M145.097 49.3779H149.316V69.0064H159.362V72.6435H145.097V49.3779Z" fill="#C7C7C7"/>
<path fill-rule="evenodd" clip-rule="evenodd" d="M170.908 49.3779H184.811V53.015H175.128V59.1096H182.948V62.748H175.128V69.0064H185.336V72.6435H170.908V49.3779Z" fill="#C7C7C7"/>
<path fill-rule="evenodd" clip-rule="evenodd" d="M46.2347 103.825C51.732 103.825 54.5127 106.805 54.5127 106.805L53.3023 108.478C53.3023 108.478 50.6197 105.922 46.3001 105.922C40.9022 105.922 37.042 110.116 37.042 115.557C37.042 121.061 40.9022 125.55 46.3655 125.55C51.0123 125.55 53.8257 122.47 53.8257 122.47L55.1343 124.076C55.1343 124.076 51.9937 127.648 46.3342 127.648C39.5296 127.648 34.6865 122.307 34.6865 115.588C34.6865 108.904 39.6591 103.825 46.2347 103.825Z" fill="#C7C7C7"/>
<path fill-rule="evenodd" clip-rule="evenodd" d="M78.1638 103.825C84.6753 103.825 89.8768 108.971 89.8768 115.588C89.8768 122.339 84.6753 127.648 78.1638 127.648C71.6536 127.648 66.4507 122.339 66.4507 115.588C66.4507 108.971 71.6536 103.825 78.1638 103.825ZM78.1638 125.55C83.334 125.55 87.5214 121.225 87.5214 115.588C87.5214 110.083 83.334 105.922 78.1638 105.922C72.9636 105.922 68.8075 110.083 68.8075 115.588C68.8075 121.225 72.9636 125.55 78.1638 125.55Z" fill="#C7C7C7"/>
<path fill-rule="evenodd" clip-rule="evenodd" d="M103.156 104.218H115.262V106.25H105.414V114.9H113.855V116.932H105.414V127.254H103.156V104.218Z" fill="#C7C7C7"/>
<path fill-rule="evenodd" clip-rule="evenodd" d="M128.15 104.218H140.256V106.25H130.407V114.9H138.849V116.932H130.407V127.254H128.15V104.218Z" fill="#C7C7C7"/>
<path fill-rule="evenodd" clip-rule="evenodd" d="M153.144 104.218H166.1V106.25H155.401V114.639H164.137V116.671H155.401V125.223H166.69V127.254H153.144V104.218Z" fill="#C7C7C7"/>
<path fill-rule="evenodd" clip-rule="evenodd" d="M180.002 104.218H192.958V106.25H182.259V114.639H190.995V116.671H182.259V125.223H193.548V127.254H180.002V104.218Z" fill="#C7C7C7"/>
<path fill-rule="evenodd" clip-rule="evenodd" d="M60.498 177.573C60.498 177.573 62.8862 180.096 66.5175 180.096C69.0378 180.096 71.0988 178.589 71.0988 176.097C71.0988 170.297 59.6147 171.773 59.6147 164.629C59.6147 161.319 62.5277 158.436 66.7805 158.436C70.7703 158.436 72.9308 160.664 72.9308 160.664L71.8185 162.564C71.8185 162.564 69.7902 160.598 66.7805 160.598C63.8349 160.598 61.9375 162.532 61.9375 164.563C61.9375 170.036 73.4215 168.464 73.4215 176.033C73.4215 179.473 70.7703 182.258 66.4534 182.258C61.7412 182.258 59.1567 179.309 59.1567 179.309L60.498 177.573Z" fill="#C7C7C7"/>
<path fill-rule="evenodd" clip-rule="evenodd" d="M86.6372 158.829H88.8945V169.315H102.243V158.829H104.502V181.865H102.243V171.347H88.8945V181.865H86.6372V158.829Z" fill="#C7C7C7"/>
<path fill-rule="evenodd" clip-rule="evenodd" d="M129.494 158.436C136.004 158.436 141.206 163.581 141.206 170.199C141.206 176.95 136.004 182.258 129.494 182.258C122.982 182.258 117.781 176.95 117.781 170.199C117.781 163.581 122.982 158.436 129.494 158.436ZM129.494 180.161C134.663 180.161 138.851 175.836 138.851 170.199C138.851 164.694 134.663 160.533 129.494 160.533C124.292 160.533 120.136 164.694 120.136 170.199C120.136 175.836 124.292 180.161 129.494 180.161Z" fill="#C7C7C7"/>
<path fill-rule="evenodd" clip-rule="evenodd" d="M154.485 158.829H162.436C166.559 158.829 169.535 161.516 169.535 165.775C169.535 170.068 166.559 172.822 162.436 172.822H156.744V181.865H154.485V158.829ZM162.141 170.79C165.218 170.79 167.212 168.922 167.212 165.775C167.212 162.663 165.218 160.86 162.174 160.86H156.744V170.79H162.141Z" fill="#C7C7C7"/>
<path fill-rule="evenodd" clip-rule="evenodd" d="M0.436035 0.590088H227.798V228.314H0.436035V0.590088ZM4.87427 223.869H223.359V5.03541H4.87427V223.869Z" fill="#C7C7C7"/>
</g>
<defs>
<clipPath id="clip0">
<rect width="228" height="228" fill="white" transform="translate(0 0.5)"/>
</clipPath>
</defs>
</svg>
